<svg xmlns="http://www.w3.org/2000/svg" version="1.1" xmlns:xlink="http://www.w3.org/1999/xlink" xmlns:svgjs="http://svgjs.dev/svgjs" width="1500" height="234" viewBox="0 0 1500 234"><g transform="matrix(1,0,0,1,-0.9090909090908781,-0.30210585175620963)"><svg viewBox="0 0 396 62" data-background-color="#ffffff" preserveAspectRatio="xMidYMid meet" height="234" width="1500" xmlns="http://www.w3.org/2000/svg" xmlns:xlink="http://www.w3.org/1999/xlink"><g id="tight-bounds" transform="matrix(1,0,0,1,0.2400000000000091,0.08004514020890952)"><svg viewBox="0 0 395.52 61.83975736758879" height="61.83975736758879" width="395.52"><g><svg viewBox="0 0 487.83216367547817 76.27281208990047" height="61.83975736758879" width="395.52"><g transform="matrix(1,0,0,1,92.3121636754782,21.151037365396054)"><svg viewBox="0 0 395.52 33.97073735910836" height="33.97073735910836" width="395.52"><g id="textblocktransform"><svg viewBox="0 0 395.52 33.97073735910836" height="33.97073735910836" width="395.52" id="textblock"><g><svg viewBox="0 0 395.52 33.97073735910836" height="33.97073735910836" width="395.52"><g transform="matrix(1,0,0,1,0,0)"><svg width="395.52" viewBox="3.25 -33.48 396.99 34.11" height="33.97073735910836" data-palette-color="#152232"><path d="M7.28 0L3.25 0 4.48-31.95 10.9-31.95 18.48-8.85 18.82-8.85 26.4-31.95 32.85-31.95 34.08 0 30.05 0 29.6-13.48 29.18-27.63 28.73-27.63 20.83-3.68 16.5-3.68 8.6-27.63 8.15-27.63 7.7-13.45 7.28 0ZM52.97-10.63L43.8-10.63 43.8-14.08 52.87-14.08Q56.15-14.08 57.62-15.71 59.1-17.35 59.1-20.23L59.1-20.23 59.1-22.4Q59.1-25.33 57.64-26.93 56.17-28.53 52.92-28.53L52.92-28.53 43.77-28.53 43.77-31.95 53-31.95Q58.35-31.95 60.79-29.44 63.22-26.93 63.22-22.53L63.22-22.53 63.22-20.13Q63.22-15.68 60.76-13.15 58.3-10.63 52.97-10.63L52.97-10.63ZM45.2 0L41.1 0 41.1-31.95 45.17-31.95 45.17-13.05 45.2-11.2 45.2 0ZM73.22 0L69.12 0 69.12-31.95 73.22-31.95 73.22 0ZM89.05 0L70.35 0 70.35-3.48 89.05-3.48 89.05 0ZM88.52-14.58L71.47-14.58 71.47-18.03 88.52-18.03 88.52-14.58ZM88.9-28.48L70.32-28.48 70.32-31.95 88.9-31.95 88.9-28.48ZM118.64 0L108.19 0 108.19-3.43 118.24-3.43Q121.49-3.43 122.85-4.81 124.22-6.2 124.22-8.65L124.22-8.65 124.22-9.55Q124.22-12.05 122.83-13.43 121.44-14.8 117.99-14.8L117.99-14.8 108.22-14.8 108.22-18.07 117.94-18.07Q121.02-18.07 122.33-19.41 123.64-20.75 123.64-23.13L123.64-23.13 123.64-23.58Q123.64-25.93 122.38-27.24 121.12-28.55 117.92-28.55L117.92-28.55 108.12-28.55 108.12-31.95 118.29-31.95Q123.39-31.95 125.59-29.93 127.79-27.9 127.79-24.23L127.79-24.23 127.79-23.73Q127.79-20.8 126.39-19.13 124.99-17.45 122.04-17.13L122.04-17.13 122.02-16.98Q125.39-16.48 126.92-14.63 128.44-12.78 128.44-9.47L128.44-9.47 128.44-8.45Q128.44-4.48 126.14-2.24 123.84 0 118.64 0L118.64 0ZM109.47 0L105.37 0 105.37-31.95 109.47-31.95 109.47 0ZM143.64 0.63L143.64 0.63Q138.39 0.63 135.68-2.21 132.96-5.05 132.96-10.38L132.96-10.38 132.96-14.1Q132.96-19.4 135.69-22.23 138.41-25.05 143.64-25.05L143.64-25.05Q148.89-25.05 151.6-22.23 154.31-19.4 154.31-14.1L154.31-14.1 154.31-10.38Q154.31-5.05 151.6-2.21 148.89 0.63 143.64 0.63ZM143.64-2.68L143.64-2.68Q146.89-2.68 148.58-4.6 150.26-6.53 150.26-10.15L150.26-10.15 150.26-14.33Q150.26-17.93 148.58-19.84 146.89-21.75 143.64-21.75L143.64-21.75Q140.41-21.75 138.71-19.84 137.01-17.93 137.01-14.33L137.01-14.33 137.01-10.15Q137.01-6.53 138.71-4.6 140.41-2.68 143.64-2.68ZM159.64-24.4L163.66-24.4 163.66-9.22Q163.66-7.3 164.2-5.86 164.74-4.42 165.96-3.64 167.19-2.85 169.26-2.85L169.26-2.85Q171.21-2.85 172.61-3.56 174.01-4.28 174.9-5.53 175.79-6.78 176.11-8.35L176.11-8.35 176.84-5.48 175.96-5.48Q175.59-3.83 174.59-2.46 173.59-1.1 171.9-0.29 170.21 0.53 167.74 0.53L167.74 0.53Q164.86 0.53 163.07-0.56 161.29-1.65 160.46-3.74 159.64-5.83 159.64-8.78L159.64-8.78 159.64-24.4ZM175.94-24.4L179.99-24.4 179.99 0 175.94 0 176.11-5.85 175.94-6.1 175.94-24.4ZM196.91 0L190.68 0 184.68-24.4 188.86-24.4 193.66-2.95 194.13-2.95 199.13-23.75 204.86-23.75 209.86-2.95 210.31-2.95 215.16-24.4 219.31-24.4 213.31 0 207.11 0 202.98-17.35 202.18-20.83 201.81-20.83 201.03-17.35 196.91 0ZM232.88 0.5L232.88 0.5Q230.06 0.5 228.33-0.35 226.61-1.2 225.83-2.93 225.06-4.65 225.06-7.23L225.06-7.23 225.06-22.63 229.06-22.63 229.06-7.7Q229.06-5.3 230.16-4.16 231.26-3.03 233.86-3.03L233.86-3.03Q235.33-3.03 236.69-3.35 238.06-3.68 239.26-4.28L239.26-4.28 238.88-0.8Q237.71-0.2 236.13 0.15 234.56 0.5 232.88 0.5ZM238.63-20.8L221.06-20.8 221.06-24.05 239.01-24.05 238.63-20.8ZM228.96-23.65L225.08-23.65 225.06-30.5 229.13-31.03 228.96-23.65ZM254.03 0.55L254.03 0.55Q248.45 0.55 245.63-2.18 242.8-4.9 242.8-9.98L242.8-9.98 242.8-14.33Q242.8-19.48 245.43-22.26 248.05-25.05 253.1-25.05L253.1-25.05Q256.5-25.05 258.78-23.79 261.05-22.53 262.2-20.2 263.35-17.88 263.35-14.65L263.35-14.65 263.35-13.75Q263.35-12.95 263.29-12.15 263.23-11.35 263.13-10.58L263.13-10.58 259.4-10.58Q259.45-11.78 259.47-12.85 259.48-13.93 259.48-14.83L259.48-14.83Q259.48-17.05 258.77-18.59 258.05-20.13 256.64-20.94 255.23-21.75 253.1-21.75L253.1-21.75Q249.95-21.75 248.38-19.93 246.8-18.1 246.8-14.7L246.8-14.7 246.8-12.38 246.83-11.88 246.83-9.55Q246.83-8.03 247.28-6.8 247.73-5.58 248.69-4.69 249.65-3.8 251.14-3.34 252.63-2.88 254.68-2.88L254.68-2.88Q257.05-2.88 259.1-3.5 261.15-4.13 262.95-5.2L262.95-5.2 262.58-1.7Q260.95-0.68 258.8-0.06 256.65 0.55 254.03 0.55ZM262.28-10.58L244.93-10.58 244.93-13.63 262.28-13.63 262.28-10.58ZM278.15 0.55L278.15 0.55Q272.9 0.55 270.34-2.29 267.78-5.13 267.78-10.33L267.78-10.33 267.78-14.13Q267.78-19.35 270.35-22.16 272.93-24.98 278.15-24.98L278.15-24.98Q279.7-24.98 280.98-24.69 282.25-24.4 283.26-23.94 284.28-23.48 284.98-22.98L284.98-22.98 285.33-19.45Q284.15-20.35 282.54-20.98 280.93-21.6 278.75-21.6L278.75-21.6Q275.25-21.6 273.54-19.66 271.83-17.73 271.83-14.03L271.83-14.03 271.83-10.43Q271.83-6.8 273.54-4.85 275.25-2.9 278.75-2.9L278.75-2.9Q281-2.9 282.64-3.53 284.28-4.15 285.55-5.05L285.55-5.05 285.18-1.48Q284.08-0.73 282.3-0.09 280.53 0.55 278.15 0.55ZM310.82 0L306.77 0 306.77-15.18Q306.77-17.15 306.24-18.57 305.7-20 304.49-20.79 303.27-21.58 301.17-21.58L301.17-21.58Q299.25-21.58 297.85-20.85 296.45-20.13 295.59-18.89 294.72-17.65 294.37-16.07L294.37-16.07 293.47-18.95 294.52-18.95Q294.9-20.6 295.9-21.96 296.9-23.33 298.59-24.14 300.27-24.95 302.7-24.95L302.7-24.95Q305.6-24.95 307.39-23.85 309.17-22.75 310-20.69 310.82-18.63 310.82-15.63L310.82-15.63 310.82 0ZM294.5 0L290.45 0 290.45-33.13 294.47-33.13 294.47-25.18 294.35-18.18 294.5-17.85 294.5 0ZM337.47 0L333.42 0 333.42-15.18Q333.42-17.15 332.88-18.57 332.35-20 331.13-20.79 329.92-21.58 327.82-21.58L327.82-21.58Q325.9-21.58 324.48-20.85 323.07-20.13 322.2-18.89 321.32-17.65 320.97-16.07L320.97-16.07 320.25-18.95 321.12-18.95Q321.52-20.6 322.52-21.96 323.52-23.33 325.21-24.14 326.9-24.95 329.35-24.95L329.35-24.95Q332.25-24.95 334.03-23.85 335.82-22.75 336.65-20.69 337.47-18.63 337.47-15.63L337.47-15.63 337.47 0ZM321.15 0L317.1 0 317.1-24.4 321.15-24.4 320.97-18.55 321.15-18.32 321.15 0ZM347.87 0L343.82 0 343.82-24.4 347.87-24.4 347.87 0ZM345.84-28.4L345.84-28.4Q344.59-28.4 343.98-29.06 343.37-29.73 343.37-30.88L343.37-30.88 343.37-31Q343.37-32.18 343.98-32.83 344.59-33.48 345.84-33.48L345.84-33.48Q347.09-33.48 347.72-32.83 348.34-32.18 348.34-31L348.34-31 348.34-30.88Q348.34-29.7 347.72-29.05 347.09-28.4 345.84-28.4ZM364.82 0.55L364.82 0.55Q359.24 0.55 356.42-2.18 353.59-4.9 353.59-9.98L353.59-9.98 353.59-14.33Q353.59-19.48 356.22-22.26 358.84-25.05 363.89-25.05L363.89-25.05Q367.29-25.05 369.57-23.79 371.84-22.53 372.99-20.2 374.14-17.88 374.14-14.65L374.14-14.65 374.14-13.75Q374.14-12.95 374.08-12.15 374.02-11.35 373.92-10.58L373.92-10.58 370.19-10.58Q370.24-11.78 370.25-12.85 370.27-13.93 370.27-14.83L370.27-14.83Q370.27-17.05 369.55-18.59 368.84-20.13 367.43-20.94 366.02-21.75 363.89-21.75L363.89-21.75Q360.74-21.75 359.17-19.93 357.59-18.1 357.59-14.7L357.59-14.7 357.59-12.38 357.62-11.88 357.62-9.55Q357.62-8.03 358.07-6.8 358.52-5.58 359.48-4.69 360.44-3.8 361.93-3.34 363.42-2.88 365.47-2.88L365.47-2.88Q367.84-2.88 369.89-3.5 371.94-4.13 373.74-5.2L373.74-5.2 373.37-1.7Q371.74-0.68 369.59-0.06 367.44 0.55 364.82 0.55ZM373.07-10.58L355.72-10.58 355.72-13.63 373.07-13.63 373.07-10.58ZM400.24 0L395.39 0 385.74-11.38 383.16-11.38 383.16-14.53 385.74-14.53 394.99-24.4 399.79-24.4 388.71-12.63 388.71-13.6 400.24 0ZM383.56 0L379.54 0 379.54-33.13 383.56-33.13 383.56 0Z" opacity="1" transform="matrix(1,0,0,1,0,0)" fill="#152232" class="wordmark-text-0" data-fill-palette-color="primary" id="text-0"></path></svg></g></svg></g></svg></g></svg></g><g><svg viewBox="0 0 76.27281208990047 76.27281208990047" height="76.27281208990047" width="76.27281208990047"><g><svg></svg></g><g id="icon-0"><svg viewBox="0 0 76.27281208990047 76.27281208990047" height="76.27281208990047" width="76.27281208990047"><g><path d="M0 38.136c0-21.062 17.074-38.136 38.136-38.136 21.062 0 38.136 17.074 38.137 38.136 0 21.062-17.074 38.136-38.137 38.137-21.062 0-38.136-17.074-38.136-38.137zM38.136 73.209c19.37 0 35.073-15.703 35.073-35.073 0-19.37-15.703-35.073-35.073-35.072-19.37 0-35.073 15.703-35.072 35.072 0 19.37 15.703 35.073 35.072 35.073z" data-fill-palette-color="accent" fill="#5ebc67" stroke="transparent"></path></g><g transform="matrix(1,0,0,1,20.819708161543353,21.978081375966262)"><svg viewBox="0 0 34.63339576681376 32.316649337967945" height="32.316649337967945" width="34.63339576681376"><g><svg xmlns="http://www.w3.org/2000/svg" xmlns:xlink="http://www.w3.org/1999/xlink" version="1.1" x="0" y="0" viewBox="8.8 2.8 88.2 82.3" enable-background="new 0 0 100 86.1" xml:space="preserve" height="32.316649337967945" width="34.63339576681376" class="icon-dxe-0" data-fill-palette-color="accent" id="dxe-0"><g fill="#5ebc67" data-fill-palette-color="accent"><g fill="#5ebc67" data-fill-palette-color="accent"><polygon points="84.8,37.2 83.1,38.8 88.9,44.6 86.9,46.5 81.2,40.8 79,43 81.7,45.6 80.2,47.1 77.5,44.4 75.4,46.5 78.1,49.2     76.6,50.7 73.9,48 71.8,50.1 74.5,52.8 73,54.3 70.4,51.6 68,53.9 73.8,59.7 71.8,61.7 66,55.9 63.6,58.4 66.3,61.1 64.8,62.5     62.1,59.8 60,62 62.7,64.6 61.2,66.1 58.5,63.4 56.4,65.5 59.1,68.2 57.6,69.7 55,67 52.9,69 58.7,74.8 56.6,76.9 50.8,71.1     49.1,72.9 61.3,85.1 97,49.4   " fill="#5ebc67" data-fill-palette-color="accent"></polygon></g><g fill="#5ebc67" data-fill-palette-color="accent"><path d="M69.2 23.6V2.8H57V13.5L45.4 3.7 8.8 34.3H17.4V70.7H39.4V54.9H51.9V65.1L73.6 43.4V34.4H82.2zM35.3 45.2H24.6V34.5H35.3z" fill="#5ebc67" data-fill-palette-color="accent"></path></g></g></svg></g></svg></g></svg></g></svg></g></svg></g><defs></defs></svg><rect width="395.52" height="61.83975736758879" fill="none" stroke="none" visibility="hidden"></rect></g></svg></g></svg>